<?xml version="1.0" standalone="no"?>
<!DOCTYPE svg PUBLIC "-//W3C//DTD SVG 20010904//EN"
 "http://www.w3.org/TR/2001/REC-SVG-20010904/DTD/svg10.dtd">
<svg version="1.0" xmlns="http://www.w3.org/2000/svg"
 width="1280.000000pt" height="932.000000pt" viewBox="0 0 1280.000000 932.000000"
 preserveAspectRatio="xMidYMid meet">
<metadata>
Created by potrace 1.15, written by Peter Selinger 2001-2017
</metadata>
<g transform="translate(0.000000,932.000000) scale(0.100000,-0.100000)"
fill="#000000" stroke="none">
<path d="M6635 9311 c-23 -4 -34 -10 -25 -13 219 -81 218 -81 288 -74 197 20
209 19 487 -23 149 -23 558 -84 910 -136 352 -53 726 -109 830 -125 105 -16
280 -43 390 -60 110 -16 322 -48 470 -70 708 -106 1160 -174 1370 -205 127
-19 304 -45 395 -59 91 -14 305 -46 475 -70 171 -25 325 -48 343 -51 24 -5 32
-2 32 9 0 8 -8 17 -17 20 -19 5 -393 64 -738 115 -440 66 -1166 176 -1630 247
-269 41 -782 119 -1140 174 -357 55 -915 140 -1240 189 -324 50 -660 99 -745
110 -175 22 -395 32 -455 22z"/>
<path d="M6550 9268 c0 -25 -19 -286 -75 -1053 -41 -550 -42 -568 -90 -1200
-20 -258 -45 -598 -55 -755 -21 -290 -72 -984 -90 -1210 -9 -108 -79 -1049
-95 -1275 -4 -44 -13 -132 -20 -195 -8 -63 -19 -185 -25 -270 -6 -85 -19 -265
-30 -400 -23 -279 -96 -1265 -106 -1415 -12 -202 25 -340 112 -411 38 -32 213
-117 222 -109 2 2 -6 13 -18 25 -56 56 -66 139 -46 377 27 306 64 790 96 1233
17 228 37 494 45 590 8 96 22 276 30 400 9 124 29 394 45 600 16 206 39 503
50 660 12 157 34 445 50 640 16 196 39 486 50 645 11 160 31 434 45 610 14
176 36 473 50 660 14 187 41 536 60 775 19 239 42 532 51 650 8 118 18 247 21
286 5 71 5 71 -23 82 -142 53 -227 82 -239 82 -9 0 -15 -9 -15 -22z"/>
<path d="M6920 9208 c-35 -5 -65 -10 -66 -11 -2 -2 -31 -351 -39 -477 -7 -106
-48 -628 -80 -1025 -13 -165 -29 -374 -35 -465 -6 -91 -22 -302 -35 -470 -13
-168 -31 -406 -40 -530 -9 -124 -31 -419 -50 -655 -36 -449 -98 -1258 -140
-1840 -14 -187 -34 -452 -45 -590 -11 -137 -27 -349 -35 -470 -14 -210 -67
-895 -101 -1300 -23 -283 -9 -342 97 -399 48 -27 57 -28 138 -23 52 3 159 23
271 50 251 62 397 92 645 133 267 45 312 56 907 218 271 74 583 158 693 186
110 29 369 99 575 156 206 56 465 126 575 154 175 45 424 111 835 222 63 17
119 34 124 38 4 5 -24 134 -63 288 -67 265 -147 523 -296 962 -37 107 -124
366 -195 575 -70 209 -189 558 -264 776 -130 379 -137 400 -138 483 -1 47 2
90 7 95 14 14 178 51 223 51 46 0 313 -42 445 -69 201 -42 304 -86 362 -154
44 -51 72 -112 222 -476 69 -168 203 -493 297 -721 95 -228 201 -486 236 -572
35 -87 65 -156 67 -154 2 2 15 109 29 237 13 129 35 322 49 429 14 107 43 366
65 575 22 209 49 445 60 525 11 80 35 294 55 475 19 182 51 461 70 620 19 160
49 418 65 575 17 157 41 377 55 490 13 113 38 324 54 470 17 146 44 386 61
534 17 147 29 270 27 272 -2 2 -111 20 -243 39 -131 19 -345 51 -474 71 -129
19 -323 48 -430 64 -107 16 -377 56 -600 90 -379 57 -868 129 -1110 165 -58 8
-177 26 -265 40 -88 13 -261 40 -385 59 -124 19 -304 46 -400 60 -96 15 -231
35 -300 46 -69 11 -294 44 -500 75 -206 30 -463 69 -571 85 -201 31 -294 35
-409 18z"/>
<path d="M3097 7880 c-80 -42 -148 -69 -210 -84 -108 -27 -147 -46 -282 -134
-180 -118 -425 -389 -454 -500 -15 -57 -22 -302 -14 -452 l8 -135 50 -5 c29
-3 70 -17 96 -32 78 -46 179 -201 220 -338 13 -43 16 -45 39 -30 12 7 9 28
-19 141 -33 130 -33 134 -29 308 6 202 11 222 89 337 l51 76 6 104 5 104 56
65 c75 86 138 139 186 156 30 11 101 14 285 14 237 0 249 -1 360 -29 63 -16
131 -32 150 -37 43 -11 122 -75 187 -152 l48 -58 8 58 c4 32 7 103 5 159 -3
89 -7 107 -36 166 -50 103 -132 172 -294 252 -154 75 -214 95 -318 102 l-75 6
-118 -62z"/>
<path d="M2985 7456 c-49 -7 -103 -20 -120 -28 -32 -17 -151 -137 -177 -178
-10 -16 -19 -62 -23 -125 -6 -98 -8 -101 -55 -175 -73 -112 -79 -133 -90 -298
-10 -164 -5 -224 34 -357 14 -49 26 -97 26 -106 0 -19 -48 -62 -60 -54 -4 2
-17 33 -30 67 -76 211 -191 348 -293 348 -53 0 -57 -10 -57 -159 0 -130 1
-139 29 -198 19 -40 58 -93 109 -146 174 -185 173 -182 183 -537 8 -289 16
-342 69 -484 48 -126 275 -427 408 -538 l80 -68 93 0 c287 0 390 42 606 247
l61 58 7 185 c5 147 3 203 -9 270 -32 175 -35 152 28 218 71 74 147 200 174
288 26 83 72 425 73 538 1 66 -5 101 -34 191 -47 151 -51 179 -33 259 24 100
20 161 -20 319 -45 178 -77 240 -167 322 l-69 63 -147 36 c-228 55 -408 67
-596 42z"/>
<path d="M2413 5464 c-11 -16 -52 -87 -92 -157 -39 -71 -78 -138 -86 -150 -11
-16 -15 -50 -15 -130 0 -104 2 -115 44 -231 108 -297 238 -642 246 -650 10
-10 65 22 97 56 12 13 62 103 111 201 l91 179 -68 86 c-223 284 -273 398 -292
662 -5 80 -11 149 -12 154 -2 5 -12 -4 -24 -20z"/>
<path d="M10270 5301 c-41 -9 -81 -20 -87 -24 -17 -11 -16 -109 1 -172 8 -27
64 -196 126 -375 148 -431 556 -1638 630 -1865 32 -99 88 -295 123 -435 36
-140 90 -331 121 -425 30 -93 96 -300 145 -460 50 -159 129 -411 176 -558 122
-386 137 -516 75 -638 -12 -23 -58 -79 -103 -124 -62 -62 -94 -86 -132 -100
-104 -36 -390 -30 -1140 25 -303 23 -1097 71 -1135 69 -28 -1 443 -50 715 -74
99 -9 266 -25 370 -36 105 -10 309 -30 455 -44 146 -13 350 -34 453 -45 207
-22 318 -25 395 -10 28 5 119 41 204 81 84 39 304 139 488 221 521 233 508
225 596 370 71 118 70 130 -40 448 -48 140 -168 491 -266 780 -297 874 -408
1197 -418 1217 -5 10 -65 153 -132 318 -67 165 -151 370 -187 455 -36 85 -150
360 -253 610 -103 250 -201 483 -218 516 -74 146 -197 199 -620 263 -227 35
-239 36 -342 12z"/>
<path d="M3780 5248 c0 -2 5 -19 10 -38 14 -45 13 -561 0 -631 -6 -29 -43
-125 -84 -213 -40 -89 -114 -253 -164 -366 l-91 -205 -6 -125 c-5 -129 -4
-135 15 -63 11 45 41 84 229 302 98 115 132 162 162 228 43 92 47 122 21 146
-19 17 -18 71 7 352 6 73 7 190 3 300 -7 165 -10 185 -35 237 -14 31 -35 62
-47 68 -11 6 -20 9 -20 8z"/>
<path d="M2165 5095 c-16 -13 -76 -42 -132 -64 -168 -67 -322 -139 -418 -196
-49 -30 -137 -75 -195 -100 -159 -70 -389 -196 -425 -232 -17 -17 -54 -74 -82
-125 -235 -431 -328 -606 -343 -647 -10 -26 -23 -91 -29 -144 -14 -123 -34
-174 -128 -332 -90 -153 -97 -173 -157 -425 -73 -312 -93 -420 -126 -680 -47
-376 -77 -566 -106 -667 l-26 -93 50 -57 c28 -32 65 -71 82 -88 26 -24 31 -26
26 -10 -14 48 -26 132 -26 187 0 67 30 141 78 191 51 55 425 392 481 435 31
23 84 56 118 73 l61 31 271 10 272 10 80 -32 c44 -18 81 -31 82 -29 2 2 17 36
35 74 41 93 65 197 98 428 32 225 30 243 -40 420 -50 125 -54 153 -31 183 14
18 15 16 9 -21 -5 -33 3 -62 44 -165 27 -69 52 -144 56 -167 6 -45 -13 -240
-40 -403 -19 -113 -56 -246 -85 -302 -11 -22 -18 -42 -16 -44 16 -17 310 -74
634 -124 672 -104 655 -102 893 -107 124 -2 243 -1 265 4 l40 9 -3 65 c-1 35
-11 129 -22 209 -10 80 -22 204 -25 275 -8 158 10 787 30 1055 24 312 25 297
-51 472 -78 180 -101 218 -174 276 -30 24 -122 101 -203 170 -81 70 -154 128
-160 130 -13 3 -135 -224 -156 -290 -20 -61 -145 -158 -172 -131 -11 11 -30
60 -185 477 -94 253 -104 286 -105 350 0 39 -4 92 -7 117 l-7 47 -30 -23z"/>
<path d="M3906 5033 c-3 -21 -6 -128 -6 -238 0 -110 -5 -231 -10 -270 -25
-179 -25 -198 5 -233 l27 -32 -37 -94 c-41 -107 -37 -102 -200 -291 -203 -236
-200 -231 -230 -380 -14 -72 -30 -188 -35 -260 -16 -214 -23 -769 -11 -880 22
-215 51 -448 56 -453 7 -7 258 60 425 115 144 46 146 47 280 47 160 0 368 -33
440 -69 82 -42 375 -226 402 -253 15 -15 52 -74 82 -132 l56 -105 0 75 c0 41
-5 162 -10 268 -10 180 -9 211 16 450 29 280 29 211 -2 967 -3 82 -1 125 5
115 5 -8 14 -152 20 -320 6 -168 14 -335 17 -373 l7 -67 101 -88 c55 -48 141
-126 190 -174 73 -72 92 -85 107 -78 24 13 106 13 204 -1 75 -11 84 -10 140
12 l60 24 12 165 c7 91 24 311 38 490 33 422 45 580 45 596 0 7 -47 41 -105
74 -58 34 -105 66 -105 70 0 5 5 31 11 59 9 46 8 53 -19 108 -46 90 -178 269
-251 341 -69 67 -516 445 -586 494 -27 19 -79 38 -160 58 -100 25 -141 30
-241 30 -81 0 -135 5 -165 15 -24 8 -96 54 -159 101 -146 108 -169 120 -276
139 -128 22 -130 22 -138 -22z"/>
<path d="M3683 4609 c-180 -165 -299 -209 -563 -209 l-85 0 30 -26 c17 -13 63
-50 103 -80 90 -68 129 -121 183 -244 22 -52 53 -122 68 -154 l27 -59 98 219
c54 120 124 275 157 344 60 128 83 205 77 261 l-3 32 -92 -84z"/>
<path d="M5931 2268 c-47 -16 -64 -18 -122 -8 -37 5 -97 10 -133 10 -65 0 -66
0 -95 -40 -44 -61 -129 -238 -146 -303 -20 -83 -36 -237 -36 -373 -1 -92 5
-146 24 -237 41 -188 89 -247 200 -247 46 0 58 4 67 20 12 22 5 60 -11 60 -15
0 -10 138 16 446 15 180 31 310 41 340 22 68 93 218 99 212 3 -3 -12 -46 -34
-95 -21 -49 -44 -107 -51 -129 -12 -43 -59 -581 -60 -685 0 -50 4 -69 18 -81
36 -32 89 -51 152 -56 62 -4 66 -3 93 26 l28 29 -16 64 c-14 54 -16 99 -12
284 3 121 12 299 20 395 24 275 30 390 21 389 -5 -1 -33 -10 -63 -21z"/>
<path d="M980 2140 c-162 -11 -201 -33 -450 -255 -226 -202 -336 -312 -359
-360 -30 -64 -29 -170 4 -274 19 -59 33 -85 53 -99 46 -32 152 -69 252 -87
102 -19 24 -19 1680 15 463 10 504 14 768 75 107 24 115 24 453 21 l344 -4
128 -46 c70 -25 161 -52 202 -61 70 -14 78 -14 157 6 46 11 110 27 143 35 91
23 91 22 57 90 -37 74 -225 325 -283 380 -41 38 -165 101 -177 89 -3 -3 6 -18
20 -33 14 -15 62 -81 106 -147 44 -66 103 -153 131 -193 29 -42 51 -85 51 -99
0 -35 -32 -84 -70 -107 -74 -43 -146 0 -327 193 -48 52 -128 125 -178 162
-133 101 -140 107 -134 113 14 14 250 -179 354 -290 112 -120 181 -174 222
-174 55 0 113 54 113 103 0 13 -24 58 -54 99 -29 41 -90 130 -135 197 -46 68
-106 145 -134 171 -29 27 -49 52 -45 56 4 4 60 -15 124 -41 109 -46 120 -53
178 -117 134 -151 304 -418 352 -554 15 -42 90 -79 142 -71 41 7 92 55 92 87
0 25 -53 190 -89 278 -15 37 -71 140 -124 228 -100 167 -163 240 -281 324 -26
19 -43 36 -36 38 14 5 38 -11 136 -90 207 -166 232 -200 429 -581 l130 -252
40 1 c54 1 114 31 127 63 14 36 -37 186 -141 414 -79 174 -105 243 -83 222 12
-12 161 -346 209 -469 21 -54 35 -109 36 -140 l2 -51 39 -3 c53 -5 86 27 86
80 0 86 -78 346 -144 483 -55 112 -95 168 -143 199 -206 131 -347 214 -392
229 -71 24 -296 57 -388 57 -92 0 -176 -18 -349 -74 -310 -101 -428 -120 -701
-113 -173 4 -257 12 -493 46 -412 60 -761 119 -870 146 -52 13 -120 26 -150
30 -30 4 -88 20 -128 36 -70 28 -78 29 -235 27 -89 0 -209 -4 -267 -8z"/>
<path d="M5958 1108 c-40 -31 -120 -35 -186 -9 -65 26 -62 26 -62 -4 0 -14 -8
-29 -19 -35 -31 -16 -106 -12 -162 10 -48 19 -59 20 -153 10 -99 -11 -126 -21
-126 -45 0 -29 -42 -50 -104 -52 -33 0 -86 -10 -116 -22 -94 -35 -117 -28
-155 49 -10 19 -19 36 -20 38 -2 2 -19 0 -38 -3 -30 -6 -36 -12 -41 -40 -8
-39 -51 -80 -95 -90 -42 -9 -106 11 -146 46 l-35 31 -248 -32 c-136 -17 -417
-53 -624 -79 -208 -26 -380 -49 -382 -52 -2 -2 -7 -16 -11 -30 -6 -25 -3 -27
127 -77 73 -28 160 -61 193 -73 33 -12 64 -25 70 -30 5 -5 11 -44 15 -87 l5
-77 72 -3 c40 -2 160 6 265 17 204 22 613 61 887 86 89 8 224 22 300 29 75 8
170 18 211 21 41 3 136 12 210 20 74 8 167 16 205 20 459 38 1752 201 1780
225 10 8 15 32 15 71 0 54 -2 60 -32 82 -18 14 -57 32 -87 42 -32 10 -55 24
-58 35 -3 12 -12 16 -31 13 -143 -23 -388 -74 -577 -121 -212 -52 -239 -56
-345 -56 -86 0 -129 4 -170 18 -86 29 -184 81 -244 131 -31 25 -57 45 -58 44
-2 0 -15 -10 -30 -21z"/>
<path d="M9735 856 c-252 -117 -1119 -517 -1173 -541 -85 -38 -94 -45 -61 -45
28 0 486 -25 729 -40 91 -5 287 -16 435 -25 149 -8 358 -22 465 -30 349 -27
661 -45 875 -51 320 -9 377 9 496 154 35 43 67 82 72 89 27 36 24 287 -4 304
-6 3 -85 14 -177 23 -92 10 -232 26 -312 37 -80 10 -233 28 -340 39 -107 12
-321 37 -475 56 -334 41 -487 50 -530 30z"/>
</g>
</svg>
